# xmcd
#
# Track frame offsets:
#	150
#	15220
#	30857
#	42432
#	53677
#	65605
#	81750
#	100737
#	115190
#	134467
#	148365
#	163665
#	179617
#	194497
#	210877
#	228165
#	243240
#	263942
#
# Disc length: 3679
#
# Revision: 5
# Processed by: cddbd v1.5.1PL0 Copyright (c) Steve Scherf et al.
# Submitted via: CDex 1.50
# Normalized: r3:DSETVAR1,TDELIM( - ),TSWAP
#
DISCID=f00e5d12
DTITLE=Various Artist - Toe the Line 3... One Step Beyond! - Disc 1_2
DYEAR=1997
DGENRE=Country
TTITLE0=Steve Warriner - The Flower That Shattered The Stone
TTITLE1=Reba Mcentire - I'd Rather Ride Around With You
TTITLE2=The Dean Brothers - Running Bear
TTITLE3=George Strait - She Lays It All On The Line
TTITLE4=George Jones - The Lone Ranger
TTITLE5=Big House - Cold Outside
TTITLE6=David Lee Murmurphy - Genuine Rednecks
TTITLE7=Marty Stuart - Rocket Ship
TTITLE8=Vince Gill - Down To New Orleans
TTITLE9=Thrisha Yearwood - I Want To Live Again
TTITLE10=Roger Brown and Swing City - Boogie Till The Cows Come Home
TTITLE11=Mavericks - All That Heavan Will Allow
TTITLE12=Marty Stuart - Thanks To You
TTITLE13=Steve Earle - Johnny Come Lately
TTITLE14=Michelle Wright - Shut Up And Drive
TTITLE15=Marty Stuart - Sweet Love
TTITLE16=Paul Kaye - Billy Walk
TTITLE17=Mark Chesnutt - It's A Little Too Late
EXTD=YEAR: 1997
EXTT0=
EXTT1=
EXTT2=
EXTT3=
EXTT4=
EXTT5=
EXTT6=
EXTT7=
EXTT8=
EXTT9=
EXTT10=
EXTT11=
EXTT12=
EXTT13=
EXTT14=
EXTT15=
EXTT16=
EXTT17=
PLAYORDER=
